<svg id="Capa_1" enable-background="new 0 0 512 512" viewBox="0 0 512 512" xmlns="http://www.w3.org/2000/svg"><g><g>
<path d="m466 392h-60c-8.284 0-15-6.716-15-15v-362c0-8.284 6.716-15 15-15h60c8.284 0 15 6.716 15 15v362c0 8.284-6.716 15-15 15z" fill="#505151"/></g><g>
<path d="m346 62h-60c-8.28 0-15 6.72-15 15v300c0 8.28 6.72 15 15 15h60c8.28 0 15-6.72 15-15v-300c0-8.28-6.72-15-15-15z" fill="#505151"/></g>
<path d="m361 77v300c0 8.28-6.72 15-15 15h-30v-330h30c8.28 0 15 6.72 15 15z" fill="#505151"/><g>
<path d="m226 392h-60c-8.284 0-15-6.716-15-15v-240c0-8.284 6.716-15 15-15h60c8.284 0 15 6.716 15 15v240c0 8.284-6.716 15-15 15z" fill="#505151"/></g><g>
<path d="m106 392h-60c-8.284 0-15-6.716-15-15v-180c0-8.284 6.716-15 15-15h60c8.284 0 15 6.716 15 15v180c0 8.284-6.716 15-15 15z" fill="#01a3a4"/></g>
</g></svg>