<svg id="Capa_1" enable-background="new 0 0 512 512" viewBox="0 0 512 512" xmlns="http://www.w3.org/2000/svg"><g>
<path fill="#01a3a4" d="m55.343 0c-30.516 0-55.343 24.827-55.343 55.343s24.827 55.343 55.342 55.343c30.516 0 55.343-24.827 55.343-55.343s-24.826-55.343-55.342-55.343zm0 95.686c-22.245 0-40.343-18.098-40.343-40.343s18.098-40.343 40.343-40.343 40.343 18.098 40.343 40.343-18.098 40.343-40.343 40.343z"/>
<path fill="#01a3a4" d="m202.226 47.843c-4.142 0-7.5 3.357-7.5 7.5s3.358 7.5 7.5 7.5h18.41c4.142 0 7.5-3.357 7.5-7.5s-3.358-7.5-7.5-7.5z"/>
<path d="m248.517 55.343c0 4.143 3.358 7.5 7.5 7.5h213.029c4.143 0 7.5-3.357 7.5-7.5s-3.357-7.5-7.5-7.5h-213.029c-4.142 0-7.5 3.357-7.5 7.5z"/>
<path d="m55.343 133.771c-30.516 0-55.343 24.828-55.343 55.343s24.827 55.343 55.342 55.343c30.516 0 55.343-24.827 55.343-55.343s-24.826-55.343-55.342-55.343zm0 95.686c-22.245 0-40.343-18.098-40.343-40.343s18.098-40.343 40.342-40.343c22.245 0 40.343 18.098 40.343 40.343s-18.097 40.343-40.342 40.343z"/>
<path fill="#01a3a4" d="m494.584 145.133h-317.897c-9.603 0-17.416 7.812-17.416 17.416v53.131c0 9.604 7.813 17.416 17.416 17.416h317.896c9.604 0 17.416-7.812 17.416-17.416v-53.131c.001-9.604-7.812-17.416-17.415-17.416zm2.416 70.547c0 1.332-1.084 2.416-2.416 2.416h-317.897c-1.332 0-2.416-1.084-2.416-2.416v-53.131c0-1.332 1.084-2.416 2.416-2.416h317.896c1.332 0 2.416 1.084 2.416 2.416v53.131z"/>
<path d="m220.636 181.614h-18.41c-4.142 0-7.5 3.357-7.5 7.5s3.358 7.5 7.5 7.5h18.41c4.142 0 7.5-3.357 7.5-7.5s-3.358-7.5-7.5-7.5z"/>
<path fill="#01a3a4" d="m469.046 181.614h-213.029c-4.142 0-7.5 3.357-7.5 7.5s3.358 7.5 7.5 7.5h213.029c4.143 0 7.5-3.357 7.5-7.5s-3.358-7.5-7.5-7.5z"/>
<path d="m494.584 278.904h-317.897c-9.603 0-17.416 7.813-17.416 17.417v53.13c0 9.604 7.813 17.416 17.416 17.416h317.896c9.604 0 17.416-7.812 17.416-17.416v-53.13c.001-9.603-7.812-17.417-17.415-17.417zm2.416 70.547c0 1.332-1.084 2.416-2.416 2.416h-317.897c-1.332 0-2.416-1.084-2.416-2.416v-53.13c0-1.333 1.084-2.417 2.416-2.417h317.896c1.332 0 2.416 1.084 2.416 2.417v53.13z"/>
<path fill="#01a3a4" d="m220.636 315.386h-18.41c-4.142 0-7.5 3.357-7.5 7.5s3.358 7.5 7.5 7.5h18.41c4.142 0 7.5-3.357 7.5-7.5s-3.358-7.5-7.5-7.5z"/>
<path d="m469.046 315.386h-213.029c-4.142 0-7.5 3.357-7.5 7.5s3.358 7.5 7.5 7.5h213.029c4.143 0 7.5-3.357 7.5-7.5s-3.358-7.5-7.5-7.5z"/>
<path d="m55.343 401.315c-30.516 0-55.343 24.827-55.343 55.342s24.827 55.343 55.343 55.343 55.343-24.827 55.343-55.343-24.827-55.342-55.343-55.342zm0 95.685c-22.245 0-40.343-18.098-40.343-40.343 0-22.244 18.098-40.342 40.342-40.342 22.245 0 40.343 18.098 40.343 40.342 0 22.245-18.097 40.343-40.342 40.343z"/>
<path d="m202.226 449.157c-4.142 0-7.5 3.357-7.5 7.5s3.358 7.5 7.5 7.5h18.41c4.142 0 7.5-3.357 7.5-7.5s-3.358-7.5-7.5-7.5z"/>
<path fill="#01a3a4" d="m476.546 456.657c0-4.143-3.357-7.5-7.5-7.5h-213.029c-4.142 0-7.5 3.357-7.5 7.5s3.358 7.5 7.5 7.5h213.029c4.142 0 7.5-3.357 7.5-7.5z"/>
<path fill="#01a3a4" d="m494.584 412.677h-317.897c-9.603 0-17.416 7.812-17.416 17.416v53.13c0 9.604 7.813 17.416 17.416 17.416h218.464c4.143 0 7.5-3.357 7.5-7.5s-3.357-7.5-7.5-7.5h-218.464c-1.332 0-2.416-1.084-2.416-2.416v-53.13c0-1.332 1.084-2.416 2.416-2.416h317.896c1.332 0 2.416 1.084 2.416 2.416v53.13c0 1.332-1.084 2.416-2.416 2.416h-69.445c-4.143 0-7.5 3.357-7.5 7.5s3.357 7.5 7.5 7.5h69.445c9.604 0 17.416-7.812 17.416-17.416v-53.13c.001-9.604-7.812-17.416-17.415-17.416z"/>
<path fill="#01a3a4" d="m55.343 267.543c-30.516 0-55.343 24.827-55.343 55.343 0 4.81.626 9.603 1.861 14.248 1.064 4.002 5.171 6.385 9.175 5.32 4.003-1.064 6.385-5.172 5.321-9.176-.9-3.387-1.357-6.883-1.357-10.392 0-22.245 18.098-40.343 40.342-40.343 22.245 0 40.343 18.098 40.343 40.343s-18.098 40.343-40.343 40.343c-9.219 0-17.902-3.037-25.111-8.782-3.239-2.58-7.957-2.047-10.54 1.19-2.582 3.239-2.048 7.958 1.191 10.54 9.893 7.885 21.809 12.052 34.46 12.052 30.516 0 55.343-24.827 55.343-55.343s-24.826-55.343-55.342-55.343z"/>
<path d="m494.584 11.361h-44.541c-4.143 0-7.5 3.357-7.5 7.5s3.357 7.5 7.5 7.5h44.541c1.332 0 2.416 1.084 2.416 2.416v53.13c0 1.333-1.084 2.417-2.416 2.417h-317.897c-1.332 0-2.416-1.084-2.416-2.417v-53.13c0-1.332 1.084-2.416 2.416-2.416h243.368c4.143 0 7.5-3.357 7.5-7.5s-3.357-7.5-7.5-7.5h-243.368c-9.603 0-17.416 7.812-17.416 17.416v53.13c0 9.604 7.813 17.417 17.416 17.417h317.896c9.604 0 17.416-7.813 17.416-17.417v-53.13c.001-9.603-7.812-17.416-17.415-17.416z"/></g></svg>